<?xml version="1.0" standalone="no"?>
<!DOCTYPE svg PUBLIC "-//W3C//DTD SVG 20010904//EN"
 "http://www.w3.org/TR/2001/REC-SVG-20010904/DTD/svg10.dtd">
<svg version="1.0" xmlns="http://www.w3.org/2000/svg"
 width="800.000000pt" height="800.000000pt" viewBox="0 0 800.000000 800.000000"
 preserveAspectRatio="xMidYMid meet">
<metadata>
Created by potrace 1.11, written by Peter Selinger 2001-2013
</metadata>
<g transform="translate(0.000000,800.000000) scale(0.100000,-0.100000)"
fill="#000000" stroke="none">
<path d="M3810 7747 c-3 -3 -23 -7 -45 -10 -101 -12 -188 -42 -320 -109 -175
-89 -334 -217 -622 -502 l-213 -209 -87 -175 c-128 -259 -276 -515 -452 -782
-79 -121 -244 -359 -273 -395 -5 -5 -58 -77 -119 -160 -61 -82 -114 -152 -118
-155 -4 -3 -18 -21 -31 -40 -13 -19 -29 -40 -35 -46 -5 -7 -39 -50 -75 -97
-37 -49 -71 -84 -78 -82 -7 3 -10 0 -7 -5 5 -9 -68 -112 -113 -158 -7 -8 -24
-29 -38 -48 -15 -18 -31 -31 -37 -27 -6 4 -7 1 -3 -6 10 -15 -23 -53 -37 -44
-5 3 -7 2 -4 -3 5 -9 -31 -61 -86 -124 -13 -14 -35 -42 -51 -62 -15 -21 -33
-35 -39 -31 -5 3 -7 1 -3 -5 3 -6 -10 -28 -30 -49 -20 -21 -35 -40 -34 -42 2
-2 -8 -15 -21 -30 -14 -14 -44 -51 -69 -81 -25 -30 -47 -57 -50 -60 -40 -36
-278 -341 -338 -433 -66 -102 -75 -118 -141 -252 -65 -133 -103 -235 -118
-315 -1 -8 -6 -33 -10 -55 -10 -52 -10 -257 0 -315 22 -134 112 -319 202 -420
13 -14 30 -52 39 -85 72 -258 210 -423 413 -491 73 -25 200 -31 265 -13 24 6
48 12 53 13 6 1 32 12 59 24 27 12 50 22 52 22 17 0 123 86 186 150 63 65 88
83 145 106 199 78 454 231 648 388 72 59 244 205 285 243 19 17 45 40 57 50
12 10 57 51 100 89 152 138 198 179 217 194 10 8 39 32 63 53 24 20 46 37 47
37 5 0 -21 -140 -39 -210 -36 -143 -79 -266 -219 -625 -79 -204 -146 -410
-160 -495 -36 -209 -33 -374 8 -513 15 -49 36 -107 48 -130 11 -23 20 -44 19
-47 -1 -3 3 -25 10 -49 16 -56 97 -140 163 -170 97 -42 164 -54 322 -55 98 -1
150 -5 146 -11 -3 -5 1 -5 9 1 8 6 28 11 45 11 16 0 34 2 40 5 5 3 29 6 54 6
25 1 76 8 114 15 38 8 86 14 108 13 21 -1 33 1 27 5 -6 4 8 10 32 14 65 11 69
12 138 30 36 9 73 14 84 11 10 -2 16 -2 13 2 -4 3 22 13 56 21 35 9 64 14 66
11 3 -8 258 -4 271 4 7 4 11 -1 11 -14 0 -11 4 -28 9 -38 5 -9 14 -31 20 -47
6 -17 25 -45 41 -62 17 -18 30 -37 30 -42 0 -6 4 -11 8 -11 14 0 65 -108 57
-121 -5 -7 -4 -10 2 -6 18 11 37 -73 48 -203 3 -47 8 -97 11 -113 5 -30 39
-124 53 -146 11 -16 0 -22 122 69 347 260 773 434 1484 604 622 149 648 157
778 243 139 92 165 194 83 318 -48 72 -111 134 -281 281 -211 182 -211 181
-286 259 -100 103 -194 230 -203 275 -1 3 -30 33 -65 68 -57 56 -62 64 -49 80
8 9 32 40 53 69 33 44 41 51 54 40 14 -10 14 -10 3 5 -14 18 -8 29 48 87 13
14 22 27 20 28 -3 1 5 13 17 27 12 14 34 44 48 67 16 25 32 39 40 35 9 -3 12
0 9 8 -3 7 1 20 8 27 8 8 17 22 21 32 4 10 12 15 17 12 6 -4 10 -3 9 2 -3 19
2 33 12 33 5 0 7 -5 3 -12 -4 -7 -3 -8 4 -4 6 4 9 13 6 21 -3 8 6 26 20 40 14
14 23 25 20 25 -3 0 1 6 8 14 7 7 20 24 28 36 23 34 64 85 73 88 4 2 7 10 7
17 0 7 3 15 8 17 4 2 29 31 56 66 27 34 53 62 58 62 5 0 7 4 4 9 -7 11 38 53
48 44 4 -4 5 -1 2 7 -6 18 50 84 64 75 5 -3 7 0 4 8 -3 8 -1 18 4 21 12 7 89
166 98 201 3 14 10 23 14 20 5 -3 6 5 2 17 -4 18 -2 20 14 14 14 -5 16 -4 8 4
-9 9 -8 19 3 41 8 16 16 41 19 55 3 15 10 36 16 48 10 18 74 217 83 256 2 8 4
15 5 15 1 0 3 7 5 15 1 8 13 53 24 100 12 47 24 99 27 115 2 17 7 41 11 55 3
14 8 41 10 60 2 19 5 51 7 70 2 19 5 50 5 68 1 22 5 31 13 26 7 -4 8 -3 4 4
-4 7 -9 69 -11 139 -3 138 -10 193 -30 263 -7 25 -14 50 -15 55 -7 27 -13 42
-26 67 -8 14 -14 31 -14 38 0 20 -82 133 -129 179 -57 53 -109 90 -182 125
-31 15 -76 48 -100 74 -24 26 -69 67 -99 92 -73 60 -220 208 -220 222 0 6 -2
9 -6 6 -6 -7 -100 84 -96 94 1 5 -1 7 -5 6 -13 -4 -63 45 -56 55 3 6 1 7 -6 3
-6 -4 -14 0 -17 8 -3 9 -11 16 -16 16 -14 0 -84 71 -80 82 1 4 -1 7 -6 6 -12
-5 -64 41 -58 50 3 6 0 9 -7 8 -16 -1 -87 59 -87 74 0 6 -4 8 -10 5 -5 -3 -15
3 -22 15 -7 11 -18 20 -25 20 -6 0 -15 9 -18 20 -4 11 -11 17 -17 14 -7 -5 -9
-1 -5 9 4 10 2 14 -7 11 -14 -5 -59 30 -49 40 3 3 1 6 -6 6 -19 0 -102 71 -95
81 3 5 10 6 16 3 7 -4 8 -2 4 5 -6 9 -11 9 -22 0 -8 -6 -18 -9 -21 -5 -4 4 -1
12 7 17 12 9 12 10 -3 5 -21 -7 -69 32 -60 48 3 6 3 8 -2 4 -11 -10 -47 11
-40 22 4 6 -2 7 -12 3 -16 -6 -16 -5 -4 10 12 15 12 17 -2 11 -16 -6 -59 28
-70 57 -3 9 -6 10 -6 2 -1 -8 -11 -5 -26 9 -19 16 -22 24 -13 31 9 6 7 7 -5 3
-23 -7 -51 19 -43 41 5 13 4 14 -9 3 -10 -8 -15 -9 -15 -1 0 6 -6 11 -12 11
-21 1 -89 70 -82 82 4 7 3 8 -4 4 -11 -6 -25 3 -86 56 -17 15 -48 41 -68 58
-21 18 -35 37 -31 43 3 6 1 7 -6 3 -6 -4 -17 -1 -25 6 -7 7 -32 30 -55 51 -22
21 -41 42 -41 48 0 6 -5 7 -10 4 -6 -3 -13 1 -16 9 -3 9 -13 16 -21 16 -8 0
-11 5 -8 10 3 6 1 10 -6 10 -7 0 -29 18 -51 40 -21 23 -38 38 -38 33 0 -4 -16
8 -35 27 -19 18 -31 38 -28 43 3 6 1 7 -5 4 -9 -6 -44 26 -190 178 -79 82
-230 150 -378 169 -23 3 -88 17 -145 32 -95 24 -305 45 -319 31z"/>
<path d="M5030 7186 c0 -2 7 -7 16 -10 8 -3 12 -2 9 4 -6 10 -25 14 -25 6z"/>
<path d="M5079 7153 c-13 -16 -12 -17 4 -4 9 7 17 15 17 17 0 8 -8 3 -21 -13z"/>
<path d="M5173 7135 c0 -8 4 -12 9 -9 5 3 6 10 3 15 -9 13 -12 11 -12 -6z"/>
<path d="M5145 7120 c10 -11 20 -20 23 -20 3 0 -3 9 -13 20 -10 11 -20 20 -23
20 -3 0 3 -9 13 -20z"/>
<path d="M5186 7102 c-3 -5 1 -9 9 -9 8 0 12 4 9 9 -3 4 -7 8 -9 8 -2 0 -6 -4
-9 -8z"/>
<path d="M5136 7082 c-3 -4 4 -9 15 -9 23 -2 25 3 4 10 -8 4 -16 3 -19 -1z"/>
<path d="M5230 6995 c0 -8 4 -15 10 -15 5 0 7 7 4 15 -4 8 -8 15 -10 15 -2 0
-4 -7 -4 -15z"/>
<path d="M5350 7000 c0 -5 5 -10 11 -10 5 0 7 5 4 10 -3 6 -8 10 -11 10 -2 0
-4 -4 -4 -10z"/>
<path d="M5265 6979 c-3 -4 2 -6 10 -5 21 3 28 13 10 13 -9 0 -18 -4 -20 -8z"/>
<path d="M5290 6953 c5 -2 8 -9 5 -13 -3 -5 -1 -11 4 -14 5 -4 8 2 7 11 -2 9
-8 18 -15 19 -6 1 -7 0 -1 -3z"/>
<path d="M5416 6942 c-3 -5 1 -9 9 -9 8 0 12 4 9 9 -3 4 -7 8 -9 8 -2 0 -6 -4
-9 -8z"/>
<path d="M5354 6914 c1 -8 4 -15 7 -16 2 -2 3 -1 2 1 -2 2 2 9 7 16 7 8 5 12
-4 12 -8 0 -13 -6 -12 -13z"/>
<path d="M5405 6859 c-4 -6 -5 -12 -2 -15 2 -3 7 2 10 11 7 17 1 20 -8 4z"/>
<path d="M5500 6860 c-9 -6 -10 -10 -3 -10 6 0 15 5 18 10 8 12 4 12 -15 0z"/>
<path d="M5515 6760 c3 -5 8 -10 11 -10 2 0 4 5 4 10 0 6 -5 10 -11 10 -5 0
-7 -4 -4 -10z"/>
<path d="M5546 6762 c-3 -5 1 -9 9 -9 8 0 12 4 9 9 -3 4 -7 8 -9 8 -2 0 -6 -4
-9 -8z"/>
<path d="M5580 6766 c0 -2 8 -10 18 -17 15 -13 16 -12 3 4 -13 16 -21 21 -21
13z"/>
<path d="M5585 6719 c-3 -4 2 -6 10 -5 21 3 28 13 10 13 -9 0 -18 -4 -20 -8z"/>
<path d="M5630 6700 c0 -5 5 -10 11 -10 5 0 7 5 4 10 -3 6 -8 10 -11 10 -2 0
-4 -4 -4 -10z"/>
<path d="M5671 6653 c7 -12 15 -20 18 -17 3 2 -3 12 -13 22 -17 16 -18 16 -5
-5z"/>
<path d="M5705 6639 c-3 -4 2 -6 10 -5 21 3 28 13 10 13 -9 0 -18 -4 -20 -8z"/>
<path d="M5755 6610 c-4 -6 -10 -8 -14 -6 -4 3 -8 -1 -8 -9 0 -13 4 -12 19 2
18 16 22 23 14 23 -3 0 -8 -5 -11 -10z"/>
<path d="M5756 6582 c-3 -5 1 -9 9 -9 8 0 12 4 9 9 -3 4 -7 8 -9 8 -2 0 -6 -4
-9 -8z"/>
<path d="M5930 6499 c0 -5 5 -7 10 -4 6 3 10 8 10 11 0 2 -4 4 -10 4 -5 0 -10
-5 -10 -11z"/>
<path d="M5850 6490 c-8 -5 -12 -12 -9 -15 4 -3 12 1 19 10 14 17 11 19 -10 5z"/>
<path d="M5907 6439 c7 -7 15 -10 18 -7 3 3 -2 9 -12 12 -14 6 -15 5 -6 -5z"/>
<path d="M5995 6403 c3 -3 0 -11 -5 -18 -7 -8 -5 -12 4 -12 14 0 16 22 3 32
-4 3 -5 2 -2 -2z"/>
<path d="M6030 6401 c0 -6 4 -13 10 -16 6 -3 7 1 4 9 -7 18 -14 21 -14 7z"/>
<path d="M6070 6399 c0 -5 5 -7 10 -4 6 3 10 8 10 11 0 2 -4 4 -10 4 -5 0 -10
-5 -10 -11z"/>
<path d="M6050 6360 c0 -5 5 -10 11 -10 5 0 7 5 4 10 -3 6 -8 10 -11 10 -2 0
-4 -4 -4 -10z"/>
<path d="M6044 6322 c4 -3 14 -7 22 -8 9 -1 13 0 10 4 -4 3 -14 7 -22 8 -9 1
-13 0 -10 -4z"/>
<path d="M6133 6295 c0 -8 4 -12 9 -9 5 3 6 10 3 15 -9 13 -12 11 -12 -6z"/>
<path d="M6126 6242 c-3 -5 1 -9 9 -9 8 0 12 4 9 9 -3 4 -7 8 -9 8 -2 0 -6 -4
-9 -8z"/>
<path d="M6250 6159 c0 -5 5 -7 10 -4 6 3 10 8 10 11 0 2 -4 4 -10 4 -5 0 -10
-5 -10 -11z"/>
<path d="M6296 6142 c-3 -4 4 -9 15 -9 23 -2 25 3 4 10 -8 4 -16 3 -19 -1z"/>
<path d="M7426 4402 c-3 -5 1 -9 9 -9 8 0 12 4 9 9 -3 4 -7 8 -9 8 -2 0 -6 -4
-9 -8z"/>
<path d="M7296 4358 c3 -5 10 -6 15 -3 13 9 11 12 -6 12 -8 0 -12 -4 -9 -9z"/>
<path d="M7236 4078 c3 -5 10 -6 15 -3 13 9 11 12 -6 12 -8 0 -12 -4 -9 -9z"/>
<path d="M7213 4009 c-2 -23 3 -25 10 -4 4 8 3 16 -1 19 -4 3 -9 -4 -9 -15z"/>
<path d="M7170 3939 c0 -5 5 -7 10 -4 6 3 10 8 10 11 0 2 -4 4 -10 4 -5 0 -10
-5 -10 -11z"/>
<path d="M7135 3819 c-3 -4 2 -6 10 -5 21 3 28 13 10 13 -9 0 -18 -4 -20 -8z"/>
<path d="M7115 3741 c-3 -5 -2 -12 3 -15 5 -3 9 1 9 9 0 17 -3 19 -12 6z"/>
<path d="M6909 3323 c-13 -16 -12 -17 4 -4 16 13 21 21 13 21 -2 0 -10 -8 -17
-17z"/>
<path d="M6960 3320 c-9 -6 -10 -10 -3 -10 6 0 15 5 18 10 8 12 4 12 -15 0z"/>
<path d="M6856 3302 c-3 -5 1 -9 9 -9 8 0 12 4 9 9 -3 4 -7 8 -9 8 -2 0 -6 -4
-9 -8z"/>
<path d="M6833 3255 c0 -8 4 -12 9 -9 5 3 6 10 3 15 -9 13 -12 11 -12 -6z"/>
<path d="M6766 3198 c3 -5 10 -6 15 -3 13 9 11 12 -6 12 -8 0 -12 -4 -9 -9z"/>
<path d="M6730 3140 c0 -5 5 -10 11 -10 5 0 7 5 4 10 -3 6 -8 10 -11 10 -2 0
-4 -4 -4 -10z"/>
<path d="M6690 3060 c0 -5 5 -10 11 -10 5 0 7 5 4 10 -3 6 -8 10 -11 10 -2 0
-4 -4 -4 -10z"/>
<path d="M6676 3007 c3 -10 9 -15 12 -12 3 3 0 11 -7 18 -10 9 -11 8 -5 -6z"/>
<path d="M6613 2945 c0 -8 4 -12 9 -9 5 3 6 10 3 15 -9 13 -12 11 -12 -6z"/>
<path d="M6575 2900 c3 -5 8 -10 11 -10 2 0 4 5 4 10 0 6 -5 10 -11 10 -5 0
-7 -4 -4 -10z"/>
<path d="M6576 2842 c-3 -5 1 -9 9 -9 8 0 12 4 9 9 -3 4 -7 8 -9 8 -2 0 -6 -4
-9 -8z"/>
<path d="M6455 2740 c3 -5 8 -10 11 -10 2 0 4 5 4 10 0 6 -5 10 -11 10 -5 0
-7 -4 -4 -10z"/>
<path d="M6410 2700 c0 -5 5 -10 11 -10 5 0 7 5 4 10 -3 6 -8 10 -11 10 -2 0
-4 -4 -4 -10z"/>
<path d="M6455 2701 c-3 -5 -2 -12 3 -15 5 -3 9 1 9 9 0 17 -3 19 -12 6z"/>
<path d="M6394 2662 c4 -3 14 -7 22 -8 9 -1 13 0 10 4 -4 3 -14 7 -22 8 -9 1
-13 0 -10 -4z"/>
<path d="M6370 2600 c0 -5 5 -10 11 -10 5 0 7 5 4 10 -3 6 -8 10 -11 10 -2 0
-4 -4 -4 -10z"/>
<path d="M6339 2548 c-5 -18 -6 -38 -1 -34 7 8 12 36 6 36 -2 0 -4 -1 -5 -2z"/>
<path d="M6250 2499 c0 -5 5 -7 10 -4 6 3 10 8 10 11 0 2 -4 4 -10 4 -5 0 -10
-5 -10 -11z"/>
<path d="M6345 2480 c-3 -6 1 -7 9 -4 18 7 21 14 7 14 -6 0 -13 -4 -16 -10z"/>
<path d="M6250 2459 c0 -5 5 -7 10 -4 6 3 10 8 10 11 0 2 -4 4 -10 4 -5 0 -10
-5 -10 -11z"/>
<path d="M6186 2422 c-3 -5 1 -9 9 -9 8 0 12 4 9 9 -3 4 -7 8 -9 8 -2 0 -6 -4
-9 -8z"/>
</g>
</svg>
